<svg xmlns="http://www.w3.org/2000/svg" viewBox="0 0 40 40" width="40" height="40">
  <rect x="2" y="2" width="36" height="36" rx="6" fill="#F4D348"/>
  
  <g>
    <path d="M12,34 C10,24 16,14 26,13 C34,12 37,20 37,25 C35,29 30,35 12,34 Z" fill="#4ECDC4" opacity="0.8"/>
    
    <path d="M2,24 C5,20 10,25 15,31 C22,35 34,31 36,25 C38,18 33,12 26,13 C18,14 14,20 15,26 C11,26 6,32 2,24 Z" fill="#22252A"/>
    
    <path d="M17,14 C16,10 18,7 21,9 C21,12 19,14 17,14 Z" fill="#FF8A9A"/>
    <path d="M29,12 C28,8 30,5 32,7 C32,10 31,12 29,12 Z" fill="#FF8A9A"/>
    
    <ellipse cx="23" cy="19" rx="3.5" ry="5" fill="#55EFC4" transform="rotate(-10 23 19)"/>
    <ellipse cx="31" cy="18" rx="3" ry="4.5" fill="#55EFC4" transform="rotate(5 31 18)"/>
    
    <path d="M23,14 Q23.5,19 23,24 Q22.5,19 23,14 Z" fill="#22252A"/>
    <path d="M31,13.5 Q31.3,18 31,22.5 Q30.7,18 31,13.5 Z" fill="#22252A"/>
    
    <polygon points="27,21 29,21 28,22.5" fill="#FF8A9A"/>
    
    <path d="M24,22 C18,22 14,24 10,27" stroke="#4ECDC4" stroke-width="0.7" fill="none"/>
    <path d="M24,23 C17,24 13,27 9,31" stroke="#4ECDC4" stroke-width="0.7" fill="none"/>
    <path d="M30,21 C33,21 36,20 38,20" stroke="#22252A" stroke-width="0.6" fill="none"/>
    <path d="M30,22 C34,22 37,22 38,23" stroke="#22252A" stroke-width="0.6" fill="none"/>
  </g>
</svg>
